# xmcd CD database file
#
# Track frame offsets:
#	150
#	18190
#	34393
#	48249
#	63112
#	76630
#	92600
#	104866
#	129444
#	142719
#	157327
#	176408
#	192866
#	208096
#	220757
#	238410
#	251508
#	268116
#	279259
#	298267
#
# Disc length: 4250 seconds
#
# Revision: 0
# Processed by: cddbd v1.5.1PL0 Copyright (c) Steve Scherf et al.
# Submitted via: CDex 1.51
#
DISCID=23109814
DTITLE=John Williamson - True Blue Disc Two
DYEAR=1999
DGENRE=Country
TTITLE0=This Is Australia Calling
TTITLE1=Li'll Be Gone
TTITLE2=Rip Rip Woodchip
TTITLE3=Mallee Boy
TTITLE4=Chacker Night
TTITLE5=Boomerand Cafe
TTITLE6=Budgie Song
TTITLE7=Booge Wieh M' Baby
TTITLE8=I'm In The Mood
TTITLE9=Waratah Street
TTITLE10=A Bushman Can't Survive
TTITLE11=Drover's Boy
TTITLE12=Papa Shisky November
TTITLE13=Crocodile Roll
TTITLE14=Caatamundra Wattle
TTITLE15=Shelter
TTITLE16=Bill The Cat
TTITLE17=Beachcomber From Woolongong
TTITLE18=Galleries Of Ping Galahs
TTITLE19=Raining On The Rock
EXTD=YEAR: 1999
EXTT0=
EXTT1=
EXTT2=
EXTT3=
EXTT4=
EXTT5=
EXTT6=
EXTT7=
EXTT8=
EXTT9=
EXTT10=
EXTT11=
EXTT12=
EXTT13=
EXTT14=
EXTT15=
EXTT16=
EXTT17=
EXTT18=
EXTT19=
PLAYORDER=
